<svg xmlns="http://www.w3.org/2000/svg" viewBox="0 0 48.23 52.56" xml:space="preserve">
	<path fill="#71C3AA"
		d="M7.53 2.54c-1.29 1.67-1.94 4.24-1.94 7.65v3.63c-.05.66-.08 1.31-.08 1.91 0 .61-.02 1.22-.07 1.8-.05.4-.09.8-.11 1.2-.02.38-.08.77-.18 1.14-.33 1.09-.86 1.95-1.57 2.54-.7.58-1.63.88-2.77.88H0v5.94h.81c1.13 0 2.07.3 2.77.88.71.59 1.24 1.45 1.57 2.53.1.38.16.78.18 1.19.03.41.06.83.11 1.23.05.63.07 1.28.07 1.92 0 .54.02 1.11.05 1.69l.03 1.76c-.02.88 0 1.8.07 2.73 0 1.9.33 3.68.98 5.29.67 1.64 2.01 2.86 4 3.62.61.2 1.29.33 2.03.38.74.05 1.39.07 1.99.07h2.3v-5.79h-1.63c-1.11 0-1.99-.11-2.61-.32-.56-.19-.91-.9-1.05-2.07v-6.18c0-.91-.04-1.91-.11-2.99-.08-1.1-.25-2.19-.53-3.24-.27-1.05-.64-2.07-1.09-3.02a7.568 7.568 0 0 0-1.84-2.46l-.27-.22.28-.28c.86-.86 1.58-1.97 2.13-3.31.55-1.33.93-2.58 1.13-3.77v-.06c.1-1.43.16-2.85.19-4.22.02-1.34.04-2.75.04-4.21 0-.87.03-1.63.07-2.25.05-.58.2-1.06.45-1.42.25-.36.6-.61 1.08-.77.49-.17 1.21-.25 2.13-.25h1.63V0h-2.3c-3.43 0-5.83.85-7.13 2.54z" />
	<path fill="#172D67"
		d="M41.84 6.39a22.191 22.191 0 0 0-6.88-4.66C32.34.58 29.49 0 26.5 0h-.81v6.24h.81c2.14 0 4.17.41 6.02 1.21 1.85.8 3.51 1.93 4.92 3.34 1.41 1.41 2.54 3.08 3.34 4.96.8 1.88 1.21 3.91 1.21 6.06v9.01c0 2.09-.41 4.11-1.21 5.98-.81 1.88-1.93 3.54-3.34 4.96a15.82 15.82 0 0 1-4.92 3.34c-1.85.8-3.88 1.21-6.02 1.21h-.81v6.24h.81c3 0 5.84-.58 8.46-1.73 2.62-1.15 4.93-2.72 6.88-4.66 1.95-1.94 3.51-4.26 4.66-6.88 1.15-2.62 1.73-5.47 1.73-8.46v-9.01c0-2.99-.58-5.85-1.73-8.5-1.15-2.65-2.72-4.97-4.66-6.92z" />
</svg>