<svg width="24" height="24" viewBox="0 0 24 24" fill="none" xmlns="http://www.w3.org/2000/svg">
    <circle cx="12" cy="12" r="12" fill="white" />
    <path
        d="M14.9543 2.49984C15.1174 2.70213 15.2005 2.97508 15.3668 3.52098L19 15.4467C17.6353 14.739 16.1706 14.2435 14.6564 13.9772L12.2908 5.98951C12.272 5.9258 12.233 5.86991 12.1796 5.83019C12.1263 5.79048 12.0616 5.76907 11.9951 5.76917C11.9286 5.76928 11.8639 5.79089 11.8108 5.83077C11.7576 5.87066 11.7188 5.92667 11.7001 5.99044L9.36319 13.9732C7.84212 14.2382 6.37066 14.7345 5 15.4448L8.65094 3.5182C8.81779 2.97328 8.90124 2.70077 9.06432 2.49885C9.20829 2.32061 9.39555 2.18219 9.60824 2.09678C9.84914 2 10.1343 2 10.7047 2H13.3123C13.8834 2 14.169 2 14.4101 2.09694C14.623 2.18256 14.8103 2.32127 14.9543 2.49984H14.9543Z"
        fill="black" />
    <path
        d="M15.3891 16.0142C14.7902 16.5259 13.5947 16.8749 12.2177 16.8749C10.5276 16.8749 9.11102 16.3492 8.73515 15.6421C8.60073 16.0473 8.5706 16.5112 8.5706 16.8074C8.5706 16.8074 8.48206 18.2622 9.49471 19.274C9.49471 18.7486 9.92099 18.3227 10.4468 18.3227C11.3481 18.3227 11.347 19.1084 11.3462 19.7458L11.3462 19.8027C11.3462 20.7702 11.9379 21.5996 12.7795 21.9491C12.65 21.6827 12.5829 21.3903 12.5833 21.0941C12.5833 20.1714 13.1254 19.8278 13.7555 19.4285C14.2568 19.1108 14.8139 18.7578 15.1977 18.0497C15.4045 17.6683 15.5124 17.2412 15.5118 16.8074C15.5118 16.5309 15.4688 16.2644 15.3891 16.0142Z"
        fill="#FF5D01" />
</svg>