<svg width="24" height="24" viewBox="0 0 24 24" fill="none" xmlns="http://www.w3.org/2000/svg">
    <circle cx="12" cy="12" r="12" fill="white" />
    <path
        d="M22 17.6888C21.2361 17.8801 20.7636 17.6972 20.3397 17.0702L17.3249 12.9619L16.8891 12.3931L13.3683 17.0838C12.9661 17.6481 12.5441 17.8937 11.7933 17.694L16.3018 11.7331L12.1044 6.34885C12.8263 6.21053 13.325 6.28098 13.768 6.91766L16.895 11.0771L20.045 6.94028C20.4486 6.376 20.8824 6.1614 21.6069 6.36953L19.9794 8.49481L17.7744 11.3227C17.5119 11.6459 17.548 11.8669 17.7895 12.1791L22 17.6888ZM1.00525 11.6336L1.37406 9.84702C2.37812 6.31136 6.49281 4.84216 9.33044 7.02689C10.9888 8.31188 11.4009 10.1295 11.3189 12.1656H1.97125C1.83081 15.8305 4.50897 18.0424 7.92344 16.9138C9.12109 16.5176 9.82656 15.5939 10.1796 14.4382C10.3588 13.859 10.6554 13.7686 11.208 13.934C10.9258 15.3793 10.2892 16.5867 8.94391 17.3423C6.93381 18.4735 4.06469 18.1077 2.55531 16.5357C1.65625 15.6236 1.28481 14.4679 1.11813 13.2321C1.09188 13.0278 1.03937 12.8333 1 12.6374C1.0035 12.303 1.00525 11.9686 1.00525 11.6342V11.6336ZM1.98831 11.388H10.4356C10.3804 8.73784 8.70503 6.85561 6.41537 6.83945C3.90194 6.82006 2.09725 8.65769 1.98831 11.388Z"
        fill="black" />
</svg>